<?xml version="1.0" standalone="no"?>
<!DOCTYPE svg PUBLIC "-//W3C//DTD SVG 20010904//EN"
 "http://www.w3.org/TR/2001/REC-SVG-20010904/DTD/svg10.dtd">
<svg version="1.0" xmlns="http://www.w3.org/2000/svg"
 width="464.000000pt" height="95.000000pt" viewBox="0 0 464.000000 95.000000"
 preserveAspectRatio="xMidYMid meet">

<g transform="translate(0.000000,95.000000) scale(0.100000,-0.100000)"
fill="#000000" stroke="none">
<path d="M566 672 c-2 -4 -19 -84 -37 -177 l-33 -170 -23 95 c-14 52 -30 98
-36 102 -15 10 -34 -16 -49 -64 -11 -38 -11 -38 -65 -38 -46 0 -53 -2 -53 -20
0 -18 7 -20 69 -20 66 0 70 1 78 26 7 21 13 7 37 -90 19 -81 32 -116 42 -116
20 0 27 24 59 197 16 84 30 151 32 149 2 -2 14 -41 26 -87 26 -100 41 -107 76
-31 14 28 27 52 31 52 3 0 12 -19 20 -42 l15 -43 58 -3 c51 -3 57 -1 57 17 0
16 -8 20 -42 23 l-41 3 -25 68 c-31 85 -50 88 -82 15 l-22 -53 -18 65 c-10 36
-23 84 -29 108 -11 38 -32 55 -45 34z"/>
<path d="M4132 603 c-6 -26 -18 -92 -28 -145 -9 -54 -20 -98 -24 -98 -3 0 -14
34 -25 75 -22 89 -42 99 -66 33 -15 -42 -17 -43 -63 -46 -38 -3 -47 -6 -44
-20 2 -13 16 -18 55 -20 43 -3 54 0 66 19 15 21 16 21 26 -17 6 -20 16 -62 22
-92 11 -48 30 -74 45 -60 3 3 16 66 30 139 14 74 27 141 30 149 3 8 16 -18 27
-59 12 -41 28 -76 35 -79 7 -2 22 18 37 49 l24 53 11 -30 c6 -16 13 -35 15
-41 3 -8 25 -13 60 -13 48 0 56 3 53 18 -3 12 -13 17 -41 17 -36 0 -38 2 -60
59 -12 33 -28 61 -35 64 -7 2 -22 -18 -35 -48 l-23 -52 -25 93 c-30 112 -51
128 -67 52z"/>
<path d="M990 410 c0 -60 4 -100 10 -100 6 0 10 18 10 40 l0 40 49 0 c28 0 53
5 56 10 4 6 -15 10 -49 10 l-56 0 0 40 0 40 60 0 c33 0 60 4 60 10 0 6 -30 10
-70 10 l-70 0 0 -100z"/>
<path d="M1221 488 c-5 -13 -25 -58 -45 -100 -25 -55 -31 -78 -22 -78 8 0 17
11 20 25 6 23 11 25 65 25 52 0 59 -3 69 -25 9 -20 32 -35 32 -21 0 16 -92
196 -100 196 -6 0 -14 -10 -19 -22z m26 -106 c-21 -2 -41 -1 -44 2 -3 2 5 26
17 53 l22 48 22 -50 22 -50 -39 -3z"/>
<path d="M1380 410 c0 -60 4 -100 10 -100 6 0 10 14 10 30 0 27 3 30 33 30 24
0 39 -8 59 -32 32 -39 48 -33 17 6 l-21 27 21 23 c50 53 7 116 -80 116 l-49 0
0 -100z m114 64 c38 -37 7 -84 -55 -84 l-39 0 0 50 0 50 39 0 c23 0 46 -7 55
-16z"/>
<path d="M1580 410 c0 -60 4 -100 10 -100 6 0 10 33 10 78 l1 77 35 -62 c20
-35 40 -63 44 -63 5 0 25 28 44 63 l36 62 0 -77 c0 -45 4 -78 10 -78 6 0 10
40 10 100 0 55 -3 100 -7 100 -5 0 -26 -32 -47 -70 -22 -39 -42 -70 -45 -70
-3 0 -24 32 -45 70 -22 39 -43 70 -48 70 -4 0 -8 -45 -8 -100z"/>
<path d="M1865 419 c-50 -114 -48 -109 -37 -109 5 0 14 11 20 25 10 23 17 25
71 25 54 0 59 -2 65 -25 4 -14 13 -25 20 -25 11 0 1 29 -31 100 -26 55 -51
100 -57 100 -6 0 -29 -41 -51 -91z m76 15 c11 -26 18 -49 15 -51 -2 -2 -22 -3
-44 -1 l-41 3 21 48 c11 26 22 47 25 47 2 0 13 -21 24 -46z"/>
<path d="M2068 481 c-27 -24 -33 -36 -33 -71 0 -35 6 -47 33 -71 21 -19 43
-29 63 -29 34 0 69 16 69 31 0 6 -7 6 -19 -1 -70 -37 -156 35 -120 102 24 46
75 62 120 38 12 -7 19 -7 19 -1 0 15 -35 31 -69 31 -20 0 -42 -10 -63 -29z"/>
<path d="M2250 410 c0 -60 4 -100 10 -100 6 0 10 40 10 100 0 60 -4 100 -10
100 -6 0 -10 -40 -10 -100z"/>
<path d="M2355 419 c-50 -114 -48 -109 -37 -109 5 0 14 11 20 25 10 23 17 25
71 25 54 0 59 -2 65 -25 4 -14 13 -25 20 -25 11 0 1 29 -31 100 -26 55 -51
100 -57 100 -6 0 -29 -41 -51 -91z m76 15 c11 -26 18 -49 15 -51 -2 -2 -22 -3
-44 -1 l-41 3 21 48 c11 26 22 47 25 47 2 0 13 -21 24 -46z"/>
<path d="M2558 481 c-27 -24 -33 -36 -33 -71 0 -35 6 -47 33 -71 21 -19 43
-29 63 -29 34 0 69 16 69 31 0 6 -7 6 -19 -1 -70 -37 -156 35 -120 102 24 46
75 62 120 38 12 -7 19 -7 19 -1 0 15 -35 31 -69 31 -20 0 -42 -10 -63 -29z"/>
<path d="M2762 418 c-23 -51 -42 -96 -42 -100 0 -17 18 -6 28 17 10 22 18 25
67 25 49 0 57 -3 67 -25 12 -27 34 -35 24 -9 -29 76 -83 184 -92 184 -6 0 -29
-42 -52 -92z m57 -36 c-23 -2 -43 -1 -45 1 -2 2 6 26 18 53 l21 49 23 -50 24
-50 -41 -3z"/>
<path d="M2950 410 c0 -60 4 -100 10 -100 6 0 10 33 10 78 l1 77 35 -62 c20
-35 40 -63 44 -63 5 0 25 28 44 63 l36 62 0 -77 c0 -45 4 -78 10 -78 6 0 10
40 10 100 0 55 -3 100 -7 100 -5 0 -26 -32 -47 -70 -22 -39 -42 -70 -45 -70
-3 0 -24 32 -45 70 -22 39 -43 70 -48 70 -4 0 -8 -45 -8 -100z"/>
<path d="M3220 410 c0 -60 4 -100 10 -100 6 0 10 14 10 30 0 28 3 30 36 30 61
0 94 25 94 73 0 45 -31 67 -95 67 l-55 0 0 -100z m118 68 c7 -7 12 -24 12 -40
0 -33 -24 -48 -74 -48 l-36 0 0 50 0 50 43 0 c24 0 48 -5 55 -12z"/>
<path d="M3420 435 c0 -67 3 -79 25 -100 32 -33 78 -33 110 0 22 21 25 33 25
100 0 43 -4 75 -10 75 -6 0 -10 -31 -10 -73 0 -82 -15 -107 -62 -107 -43 0
-58 28 -58 108 0 41 -4 72 -10 72 -6 0 -10 -32 -10 -75z"/>
<path d="M3652 494 c-24 -17 -29 -56 -9 -72 6 -5 31 -15 55 -22 47 -12 61 -32
42 -55 -14 -17 -63 -20 -91 -5 -12 7 -19 7 -19 1 0 -15 35 -31 67 -31 39 0 73
26 73 56 0 24 -7 29 -92 63 -56 22 -23 67 42 58 40 -5 55 5 24 17 -28 11 -69
6 -92 -10z"/>
</g>
</svg>
